<svg xmlns="http://www.w3.org/2000/svg" width="72" height="72" viewBox="0 0 72 72">
  <defs>
    <radialGradient id="glow-gumroad" cx="50%" cy="50%" r="50%">
      <stop offset="0%" stop-color="#8A2140" stop-opacity="0.6"/>
      <stop offset="100%" stop-color="#8A2140" stop-opacity="0"/>
    </radialGradient>
  </defs>
  <circle cx="36" cy="36" r="26" fill="url(#glow-gumroad)">
    <animate attributeName="r" values="24;34;24" dur="3.6s" begin="1.75s" repeatCount="indefinite"/>
    <animate attributeName="opacity" values="0.55;1;0.55" dur="3.6s" begin="1.75s" repeatCount="indefinite"/>
  </circle>
  <rect x="8" y="8" width="56" height="56" rx="14" fill="#4D1124">
    <animate attributeName="fill" values="#4D1124;#8A2140;#4D1124" dur="3.6s" begin="1.75s" repeatCount="indefinite"/>
  </rect>
  <g transform="translate(21,21) scale(1.25)">
    <path d="M12 0A12 12 0 0 0 0 12a12 12 0 0 0 12 12 12 12 0 0 0 12-12A12 12 0 0 0 12 0Zm-.007 5.12c4.48 0 5.995 3.025 6.064 4.744h-3.239c-.069-.962-.897-2.406-2.896-2.406-2.136 0-3.514 1.857-3.514 4.126 0 2.27 1.378 4.125 3.514 4.125 1.93 0 2.758-1.512 3.103-3.025h-3.103v-1.238h6.509v6.327h-2.855v-3.989c-.207 1.444-1.102 4.264-4.617 4.264-3.516 0-5.584-2.82-5.584-6.326 0-3.645 2.276-6.602 6.618-6.602z" fill="#FBF5F3"/>
  </g>
</svg>
