<svg xmlns="http://www.w3.org/2000/svg" width="72" height="72" viewBox="0 0 72 72">
  <defs>
    <radialGradient id="glow-linkedin" cx="50%" cy="50%" r="50%">
      <stop offset="0%" stop-color="#7B1E3B" stop-opacity="0.6"/>
      <stop offset="100%" stop-color="#7B1E3B" stop-opacity="0"/>
    </radialGradient>
  </defs>
  <circle cx="36" cy="36" r="26" fill="url(#glow-linkedin)">
    <animate attributeName="r" values="24;34;24" dur="3.3s" begin="0.35s" repeatCount="indefinite"/>
    <animate attributeName="opacity" values="0.55;1;0.55" dur="3.3s" begin="0.35s" repeatCount="indefinite"/>
  </circle>
  <rect x="8" y="8" width="56" height="56" rx="14" fill="#8A2140">
    <animate attributeName="fill" values="#8A2140;#7B1E3B;#8A2140" dur="3.3s" begin="0.35s" repeatCount="indefinite"/>
  </rect>
  <g transform="translate(21,21) scale(1.25)">
    <path d="M20.447 20.452h-3.554v-5.569c0-1.328-.027-3.037-1.852-3.037-1.853 0-2.136 1.445-2.136 2.939v5.667H9.351V9h3.414v1.561h.046c.477-.9 1.637-1.85 3.37-1.85 3.601 0 4.267 2.37 4.267 5.455v6.286zM5.337 7.433c-1.144 0-2.063-.926-2.063-2.065 0-1.138.92-2.063 2.063-2.063 1.14 0 2.064.925 2.064 2.063 0 1.139-.925 2.065-2.064 2.065zm1.782 13.019H3.555V9h3.564v11.452zM22.225 0H1.771C.792 0 0 .774 0 1.729v20.542C0 23.227.792 24 1.771 24h20.451C23.2 24 24 23.227 24 22.271V1.729C24 .774 23.2 0 22.222 0h.003z" fill="#FBF5F3"/>
  </g>
</svg>
