<svg xmlns="http://www.w3.org/2000/svg" width="72" height="72" viewBox="0 0 72 72">
  <defs>
    <radialGradient id="glow-telegram" cx="50%" cy="50%" r="50%">
      <stop offset="0%" stop-color="#8A2140" stop-opacity="0.6"/>
      <stop offset="100%" stop-color="#8A2140" stop-opacity="0"/>
    </radialGradient>
  </defs>
  <circle cx="36" cy="36" r="26" fill="url(#glow-telegram)">
    <animate attributeName="r" values="24;34;24" dur="3.9s" begin="1.05s" repeatCount="indefinite"/>
    <animate attributeName="opacity" values="0.55;1;0.55" dur="3.9s" begin="1.05s" repeatCount="indefinite"/>
  </circle>
  <rect x="8" y="8" width="56" height="56" rx="14" fill="#4D1124">
    <animate attributeName="fill" values="#4D1124;#8A2140;#4D1124" dur="3.9s" begin="1.05s" repeatCount="indefinite"/>
  </rect>
  <g transform="translate(21,21) scale(1.25)">
    <path d="M11.944 0A12 12 0 0 0 0 12a12 12 0 0 0 12 12 12 12 0 0 0 12-12A12 12 0 0 0 12 0a12 12 0 0 0-.056 0zm4.962 7.224c.1-.002.321.023.465.14a.506.506 0 0 1 .171.325c.016.093.036.306.02.472-.18 1.898-.962 6.502-1.36 8.627-.168.9-.499 1.201-.82 1.23-.696.065-1.225-.46-1.9-.902-1.056-.693-1.653-1.124-2.678-1.8-1.185-.78-.417-1.21.258-1.91.177-.184 3.247-2.977 3.307-3.23.007-.032.014-.15-.056-.212s-.174-.041-.249-.024c-.106.024-1.793 1.14-5.061 3.345-.48.33-.913.49-1.302.48-.428-.008-1.252-.241-1.865-.44-.752-.245-1.349-.374-1.297-.789.027-.216.325-.437.893-.663 3.498-1.524 5.83-2.529 6.998-3.014 3.332-1.386 4.025-1.627 4.476-1.635z" fill="#FBF5F3"/>
  </g>
</svg>
